# xmcd CD database file
#
# Track frame offsets:
#	150
#	12237
#	24922
#	37727
#	50550
#	65307
#	76727
#	91475
#	101939
#	113070
#	125150
#	139625
#	149755
#	161717
#	172520
#	184585
#	197880
#	212360
#	224932
#	237342
#	249107
#	262622
#	279795
#
# Disc length: 3897 seconds
#
# Revision: 0
# Processed by: cddbd v1.5.2PL0 Copyright (c) Steve Scherf et al.
# Submitted via: CDex 1.70beta2
#
DISCID=380f3717
DTITLE=Cole, Nat King - Complete Billy May Sessions, CD1
DYEAR=2017
DGENRE=Jazz
TTITLE0=Walkin' My Baby Back Home 
TTITLE1=What Does It Take 
TTITLE2=Walkin'
TTITLE3=I'm Hurtin'
TTITLE4=Angel Eyes 
TTITLE5=Lover Come Back To Me 
TTITLE6=Can't I
TTITLE7=& Dean Martin - Long, Long Ago
TTITLE8=& Dean Martin - Open Up The Doghouse
TTITLE9=Papa Loves Mambo 
TTITLE10=Teach Me Tonight 
TTITLE11=Blue Moon 
TTITLE12=With You On My Mind 
TTITLE13=Don't Try 
TTITLE14=Send For Me 
TTITLE15=Let's Make More Love (I Want Your Love) 
TTITLE16=Don't Get Around Much Anymore 
TTITLE17=The Song Is Ended 
TTITLE18=You'll Never Know 
TTITLE19=Just For The Fun Of It (Alternate Version)
TTITLE20=Who's Sorry Now
TTITLE21=These Foolish Things 
TTITLE22=Once In A While 
EXTD=YEAR: 2017
EXTT0=
EXTT1=
EXTT2=
EXTT3=
EXTT4=
EXTT5=
EXTT6=
EXTT7=
EXTT8=
EXTT9=
EXTT10=
EXTT11=
EXTT12=
EXTT13=
EXTT14=
EXTT15=
EXTT16=
EXTT17=
EXTT18=
EXTT19=
EXTT20=
EXTT21=
EXTT22=
PLAYORDER=
